HIERARCHY
ROOT Hips
{
	OFFSET 0.00000 0.00000 0.00000
	CHANNELS 6 Xposition Yposition Zposition Zrotation Yrotation Xrotation 
	JOINT LHipJoint
	{
		OFFSET 0 0 0
		CHANNELS 3 Zrotation Yrotation Xrotation
		JOINT LeftHip
		{
			OFFSET 1.57338 -1.94743 0.52196
			CHANNELS 3 Zrotation Yrotation Xrotation
			JOINT LeftKnee
			{
				OFFSET 2.60333 -7.15259 0.00000
				CHANNELS 3 Zrotation Yrotation Xrotation
				JOINT LeftAnkle
				{
					OFFSET 2.77855 -7.63400 0.00000
					CHANNELS 3 Zrotation Yrotation Xrotation
					JOINT LeftToe
					{
						OFFSET 0.19847 -0.54529 2.28466
						CHANNELS 3 Zrotation Yrotation Xrotation
						End Site
						{
							OFFSET 0.00000 -0.00000 1.17993
						}
					}
				}
			}
		}
	}
	JOINT RHipJoint
	{
		OFFSET 0 0 0
		CHANNELS 3 Zrotation Yrotation Xrotation
		JOINT RightHip
		{
			OFFSET -1.61527 -1.94743 0.52196
			CHANNELS 3 Zrotation Yrotation Xrotation
			JOINT RightKnee
			{
				OFFSET -2.53829 -6.97390 0.00000
				CHANNELS 3 Zrotation Yrotation Xrotation
				JOINT RightAnkle
				{
					OFFSET -2.80762 -7.71387 0.00000
					CHANNELS 3 Zrotation Yrotation Xrotation
					JOINT RightToe
					{
						OFFSET -0.30536 -0.83898 2.28801
						CHANNELS 3 Zrotation Yrotation Xrotation
						End Site
						{
							OFFSET -0.00000 -0.00000 1.21323
						}
					}
				}
			}
		}
	}
	JOINT lowerback
	{
		OFFSET 0 0 0
		CHANNELS 3 Zrotation Yrotation Xrotation
		JOINT Chest
		{
			OFFSET -0.04381 1.99497 -0.19778
			CHANNELS 3 Zrotation Yrotation Xrotation
			JOINT Chest2
			{
				OFFSET -0.01959 2.01295 -0.04372
				CHANNELS 3 Zrotation Yrotation Xrotation
				JOINT lowerneck
				{
					OFFSET 0 0 0
					CHANNELS 3 Zrotation Yrotation Xrotation
					JOINT Neck
					{
						OFFSET -0.05459 1.76913 0.09708
						CHANNELS 3 Zrotation Yrotation Xrotation
						JOINT Head
						{
							OFFSET 0.09461 1.77368 -0.11172
							CHANNELS 3 Zrotation Yrotation Xrotation
							End Site
							{
								OFFSET 0.03812 1.78157 -0.04834
							}
						}
					}
				}
				JOINT LeftCollar
				{
					OFFSET 0 0 0
					CHANNELS 3 Zrotation Yrotation Xrotation
					JOINT LeftShoulder
					{
						OFFSET 3.50922 1.24034 -0.28866
CHANNELS 3 Zrotation Xrotation Yrotation
						JOINT LeftElbow
						{
OFFSET 0 -5.401880 0.000000
CHANNELS 3 Zrotation Xrotation Yrotation
							JOINT LeftWrist
							{
OFFSET 0 -3.685590 0.000000
CHANNELS 3 Zrotation Xrotation Yrotation
								JOINT lhand
								{
									OFFSET 0 0 0
CHANNELS 3 Zrotation Xrotation Yrotation
									JOINT LFingers
									{
OFFSET 0 -0.617530 0.000000
CHANNELS 3 Zrotation Xrotation Yrotation
										End Site
										{
OFFSET 0 -0.497870 0.000000
										}
									}
								}
								JOINT LThumb
								{
OFFSET 0 0.000000 0.000000
CHANNELS 3 Zrotation Xrotation Yrotation
									End Site
									{
OFFSET 0 -0.505470 0.505470
									}
								}
							}
						}
					}
				}
				JOINT RightCollar
				{
					OFFSET 0 0 0
					CHANNELS 3 Zrotation Yrotation Xrotation
					JOINT RightShoulder
					{
						OFFSET -2.95373 1.39649 -0.27346
CHANNELS 3 Zrotation Xrotation Yrotation
						JOINT RightElbow
						{
OFFSET 0 -6.106700 -0.000000
CHANNELS 3 Zrotation Xrotation Yrotation
							JOINT RightWrist
							{
OFFSET 0 -3.630520 0.000000
CHANNELS 3 Zrotation Xrotation Yrotation
								JOINT rhand
								{
									OFFSET 0 0 0
CHANNELS 3 Zrotation Xrotation Yrotation
									JOINT RFingers
									{
OFFSET 0 -0.583850 0.000000
CHANNELS 3 Zrotation Xrotation Yrotation
										End Site
										{
OFFSET 0 -0.470710 0.000000
										}
									}
								}
								JOINT RThumb
								{
OFFSET 0 0.000000 0.000000
CHANNELS 3 Zrotation Xrotation Yrotation
									End Site
									{
OFFSET 0 -0.477900 0.477900
									}
								}
							}
						}
					}
				}
			}
		}
	}
}
MOTION
Frames: 7
Frame Time: 0.008333333333333333
-1.242900 18.266200 0.736500 7.136200 -22.447600 -19.421000 0.000000 0.000000 0.000000 -7.336400 9.376000 2.046500 8.580800 16.530300 54.628700 0.199500 16.902100 13.752000 0.028400 1.088700 2.992800 0.000000 0.000000 0.000000 19.083500 6.604200 9.561600 -5.922700 -14.353000 44.670600 -1.264900 1.872100 -20.727900 -0.418800 4.153700 -11.509400 -0.554500 2.189100 -5.052800 0.175000 2.932500 -1.021500 0.678500 1.456700 1.742200 -4.872900 -1.451400 -4.431100 16.196800 -3.350200 10.238000 5.669900 -1.078100 4.110200 -0.000000 0.000000 0.000000 88.538300 -33.142200 28.315700 33.242000 -43.515200 13.588400 27.865300 7.027600 -23.475200 0.000000 0.000000 0.000000 -7.125000 0.000000 0.000000 -1.445500 56.136900 0.394900 -0.000000 0.000000 0.000000 -85.830300 -56.914200 -14.172200 -33.449100 -43.672400 -13.731200 -30.024800 4.405600 -1.844000 0.000000 0.000000 0.000000 7.125000 0.000000 -0.000000 -2.658400 27.847100 -1.109900
-1.226578 18.291745 0.776741 7.762495 -22.895578 -18.532154 0.000000 0.000000 0.000000 -8.322353 9.135603 0.178964 8.864988 16.719969 55.621955 0.192796 17.197086 13.872109 0.035460 1.213386 3.336080 0.000000 0.000000 0.000000 19.519075 8.210341 9.840357 -5.625588 -14.055414 43.459926 -1.379953 -0.685193 -22.469532 -0.417177 4.145407 -11.486138 -1.408885 2.142307 -4.693119 0.038297 2.908844 -1.318165 0.990218 1.447185 1.201528 -5.516358 -1.785513 -3.489060 17.110904 -3.934747 10.587813 6.058364 -1.379521 4.140185 0.000000 0.000000 0.000000 93.780256 -29.356193 33.149016 46.593512 -51.502000 23.486509 29.617447 -0.515014 -22.696845 0.000000 0.000000 0.000000 -7.125000 0.000000 0.000000 0.677612 55.670583 -0.176701 0.000000 0.000000 0.000000 -97.219467 -56.059997 -30.218079 -43.908257 -50.207366 -21.400716 -32.182617 -0.691160 -2.014629 0.000000 0.000000 0.000000 7.125000 0.000000 0.000000 -4.308782 27.592075 -1.827922
-1.205366 18.287133 0.773777 7.904797 -22.912858 -17.324748 0.000000 0.000000 0.000000 -8.227925 9.189781 -2.717407 9.409945 17.064033 57.496739 0.353231 16.569129 14.908920 0.102425 2.046914 5.635961 0.000000 0.000000 0.000000 20.040492 9.065804 10.035186 -5.207836 -13.613628 41.712137 -1.588489 -2.561909 -24.849633 -0.252528 3.232111 -8.925858 -2.067282 2.281312 -3.712606 -0.380102 3.112371 -1.100458 0.901063 1.551245 0.860306 -6.561131 -2.507077 -4.396550 19.086440 -5.148268 10.987311 6.829874 -1.865391 4.640583 0.000000 0.000000 0.000000 98.726411 -25.827981 39.619781 64.920607 -57.448746 38.470985 30.987244 -5.482434 -22.626649 0.000000 0.000000 0.000000 -7.125000 0.000000 0.000000 2.208373 55.897086 -0.597837 0.000000 0.000000 0.000000 -107.667670 -52.793143 -47.292234 -56.918761 -55.408044 -31.795745 -32.601680 -3.492846 -2.240762 0.000000 0.000000 0.000000 7.125000 0.000000 0.000000 -4.614956 27.312557 -1.988946
-1.160732 18.282250 0.743660 6.642483 -22.291276 -15.187040 0.000000 0.000000 0.000000 -6.549134 8.766300 -6.776927 10.158318 17.497576 60.015748 0.630735 16.191002 17.009313 0.245308 3.185722 8.796508 0.000000 0.000000 0.000000 21.110360 8.789597 9.660045 -4.595367 -12.912358 39.042467 -1.728665 -3.777026 -26.431329 -0.208742 2.940172 -8.112364 -1.720535 2.157939 -2.538721 -0.288983 2.914803 -0.944234 0.747172 1.457407 0.383153 -7.536924 -3.279124 -4.323910 19.739414 -6.052023 9.932140 7.145881 -2.365619 4.486819 0.000000 0.000000 0.000000 101.658250 -22.409879 46.617830 87.095998 -59.934060 57.486027 32.642857 -8.016820 -21.686265 0.000000 0.000000 0.000000 -7.125000 0.000000 0.000000 4.209162 55.210195 -1.056155 0.000000 0.000000 0.000000 -116.087515 -48.247253 -62.158005 -72.344748 -58.767868 -44.775243 -33.353133 -5.143154 -2.553742 0.000000 0.000000 0.000000 7.125000 0.000000 0.000000 -5.165390 26.914902 -2.276294
-1.101594 18.293722 0.708999 5.357877 -21.607499 -13.363015 0.000000 0.000000 0.000000 -4.776705 8.340744 -10.512492 10.864314 17.867853 62.339854 0.838363 15.967476 18.516387 0.351777 3.808795 10.539665 0.000000 0.000000 0.000000 22.245706 9.064518 10.067408 -3.946761 -12.088669 36.047093 -1.864241 -4.325338 -27.639151 -0.113935 2.175485 -5.990940 -1.159125 2.129347 -1.185631 -0.088800 2.849239 -0.591817 0.589504 1.426177 0.006104 -8.368558 -3.825247 -4.331245 19.620659 -6.604186 9.216428 7.204264 -2.699287 4.379621 0.000000 0.000000 0.000000 102.359985 -19.807474 53.391807 109.122768 -58.554640 76.478591 32.566643 -10.838519 -21.747485 0.000000 0.000000 0.000000 -7.125000 0.000000 0.000000 4.115607 55.262508 -1.038289 0.000000 0.000000 0.000000 -121.837791 -42.941696 -74.762702 -90.191495 -59.987330 -60.165735 -34.002171 -6.082093 -2.086385 0.000000 0.000000 0.000000 7.125000 0.000000 0.000000 -5.697364 27.450638 -2.440588
-1.026132 18.289331 0.660624 3.810909 -20.417888 -11.468779 0.000000 0.000000 0.000000 -2.847755 7.539427 -14.269440 11.559634 18.198184 64.586044 0.662616 12.436200 15.814883 0.155907 2.542088 7.006375 0.000000 0.000000 0.000000 23.949566 9.816344 10.562222 -3.349823 -11.240883 33.096637 -1.892214 -6.070380 -28.746112 -0.066278 1.661118 -4.570094 -0.268644 2.086520 -0.006326 0.077824 2.780519 -0.703435 0.211876 1.391467 -0.732904 -8.842666 -3.842081 -2.365360 19.298205 -6.453516 8.075858 7.207575 -2.799033 3.676018 0.000000 0.000000 0.000000 101.249496 -18.519085 58.474805 125.878109 -54.526671 90.499986 33.632896 -12.494081 -22.238257 0.000000 0.000000 0.000000 -7.125000 0.000000 0.000000 5.233771 56.058082 -1.422590 0.000000 0.000000 0.000000 -123.894227 -37.405079 -83.758907 -106.955721 -58.883959 -74.628938 -36.117363 -7.412645 -1.623931 0.000000 0.000000 0.000000 7.125000 0.000000 0.000000 -7.357962 27.943920 -3.075407
-0.951063 18.295178 0.628743 2.995583 -19.006327 -9.990208 0.000000 0.000000 0.000000 -1.913100 6.714097 -17.201495 11.635411 18.232184 64.828409 0.244760 5.420307 8.997189 0.044753 -1.307376 -3.595628 0.000000 0.000000 0.000000 24.933640 10.196850 11.195275 -2.798287 -10.360481 30.152865 -1.935338 -8.213466 -30.297230 -0.017156 0.845492 -2.323649 0.224959 2.216485 0.764972 -0.240208 2.955754 -0.475289 -0.416045 1.475227 -0.890682 -8.098560 -3.874344 -1.835561 18.407181 -6.483246 8.236848 6.791092 -2.839628 3.582886 0.000000 0.000000 0.000000 99.853877 -18.754127 62.757599 136.933441 -49.776168 99.245730 35.674936 -14.017174 -21.725888 0.000000 0.000000 0.000000 -7.125000 0.000000 0.000000 7.616103 55.946992 -2.053945 0.000000 0.000000 0.000000 -123.471912 -31.643050 -91.537952 -120.882814 -56.060392 -86.390352 -38.454339 -9.683237 -1.454703 0.000000 0.000000 0.000000 7.125000 0.000000 0.000000 -9.164945 28.079402 -3.817599
